<?xml version="1.0" encoding="utf-8"?>
<!-- Uploaded to: SVG Repo, www.svgrepo.com, Generator: SVG Repo Mixer Tools -->
<svg width="800px" height="800px" viewBox="0 0 1024 1024" class="icon"  version="1.1" xmlns="http://www.w3.org/2000/svg"><path d="M624.5 320.6l-104 225.5 73.5 20.5L452 801l21.9-184.6-70.5-30.5 61.1-252.8" fill="#FBBA22" /><path d="M654.8 177.9c-48.7 0-92 23.1-120.1 59-17.8-24.1-46.1-39.8-78.1-39.8-48.4 0-88.4 35.7-96.2 82.6h-54.6c-57.1 0-103.3 46.9-103.3 104.9 0 57.9 46.2 104.9 103.3 104.9h349c84.8 0 153.5-69.8 153.5-155.8-0.1-86.1-68.8-155.8-153.5-155.8z" fill="#FFFFFF" /><path d="M654.8 160.5c-45.5 0-88.3 18.1-120.2 50.3-21.1-19.9-48.6-31-78-31-51.3 0-95.5 34-109.9 82.6h-40.9c-66.5 0-120.6 54.8-120.6 122.2s54.1 122.2 120.6 122.2h99l-18.1 75c-2 8.2 2.2 16.6 9.9 20l58.7 25.4L434.8 799c-1 8.1 3.9 15.8 11.6 18.4 1.9 0.6 3.8 0.9 5.6 0.9 5.9 0 11.6-3 14.8-8.3l142-234.3c2.8-4.6 3.3-10.3 1.3-15.3-2-5-6.2-8.8-11.4-10.3L544.8 535l13-28.1h97.1c94.2 0 170.8-77.7 170.8-173.1-0.1-95.6-76.7-173.3-170.9-173.3z m-87.4 416.7l-88.8 146.5 12.5-105.3c0.9-7.6-3.3-14.9-10.3-17.9l-57.1-24.8 16.7-69h79.2l-14.8 32c-2.1 4.6-2.1 9.9 0 14.5s6.2 8 11 9.4l51.6 14.6z m87.4-105.1h-349c-47.4 0-86-39.3-86-87.6s38.6-87.6 86-87.6h54.6c8.5 0 15.7-6.1 17.1-14.5 6.5-39.5 39.8-68.1 79.1-68.1 25.4 0 48.8 11.9 64.1 32.7 3.2 4.4 8.3 6.9 13.7 7 5.5 0.2 10.5-2.4 13.9-6.6 26.1-33.3 64.9-52.4 106.5-52.4 75.1 0 136.2 62.1 136.2 138.5 0 76.5-61.1 138.6-136.2 138.6z" fill="#211F1E" /></svg>